<?xml version="1.0" encoding="UTF-8" standalone="no"?>
<svg
   xmlns:dc="http://purl.org/dc/elements/1.1/"
   xmlns:cc="http://creativecommons.org/ns#"
   xmlns:rdf="http://www.w3.org/1999/02/22-rdf-syntax-ns#"
   xmlns:svg="http://www.w3.org/2000/svg"
   xmlns="http://www.w3.org/2000/svg"
   xmlns:xlink="http://www.w3.org/1999/xlink"
   xmlns:sodipodi="http://sodipodi.sourceforge.net/DTD/sodipodi-0.dtd"
   xmlns:inkscape="http://www.inkscape.org/namespaces/inkscape"
   sodipodi:docname="logo.svg"
   inkscape:version="1.0 (4035a4fb49, 2020-05-01)"
   id="svg8"
   version="1.1"
   viewBox="0 0 87.690254 87.634964"
   height="331.21875"
   width="331.42773">
  <defs
     id="defs2">
    <linearGradient
       inkscape:collect="always"
       id="linearGradient892">
      <stop
         style="stop-color:#0059be;stop-opacity:1"
         offset="0"
         id="stop888" />
      <stop
         style="stop-color:#00ffcc;stop-opacity:1"
         offset="1"
         id="stop890" />
    </linearGradient>
    <linearGradient
       inkscape:collect="always"
       id="linearGradient851">
      <stop
         style="stop-color:#be0000;stop-opacity:1"
         offset="0"
         id="stop879" />
      <stop
         style="stop-color:#ffba00;stop-opacity:1"
         offset="1"
         id="stop881" />
    </linearGradient>
    <linearGradient
       id="linearGradient851-3"
       inkscape:collect="always">
      <stop
         id="stop847"
         offset="0"
         style="stop-color:#be0000;stop-opacity:1" />
      <stop
         id="stop849"
         offset="1"
         style="stop-color:#ffba00;stop-opacity:1" />
    </linearGradient>
    <linearGradient
       gradientTransform="scale(3.7795276)"
       gradientUnits="userSpaceOnUse"
       y2="147.02554"
       x2="109.41528"
       y1="98.115219"
       x1="31.212881"
       id="linearGradient853"
       xlink:href="#linearGradient851-3"
       inkscape:collect="always" />
    <linearGradient
       y2="147.02554"
       x2="109.41528"
       y1="98.115219"
       x1="31.212881"
       gradientTransform="scale(3.7795276)"
       gradientUnits="userSpaceOnUse"
       id="linearGradient884"
       xlink:href="#linearGradient892"
       inkscape:collect="always" />
    <linearGradient
       y2="147.02554"
       x2="109.41528"
       y1="98.115219"
       x1="31.212881"
       gradientTransform="scale(3.7795276)"
       gradientUnits="userSpaceOnUse"
       id="linearGradient886"
       xlink:href="#linearGradient851"
       inkscape:collect="always" />
  </defs>
  <sodipodi:namedview
     units="px"
     fit-margin-bottom="0"
     fit-margin-right="0"
     fit-margin-left="0"
     fit-margin-top="0"
     inkscape:pagecheckerboard="true"
     showgrid="false"
     inkscape:document-rotation="0"
     inkscape:current-layer="layer1"
     inkscape:document-units="px"
     inkscape:cy="141.85227"
     inkscape:cx="162.2602"
     inkscape:zoom="1.4"
     inkscape:pageshadow="2"
     inkscape:pageopacity="0.0"
     borderopacity="1.0"
     bordercolor="#666666"
     pagecolor="#ffffff"
     id="base" />
  <metadata
     id="metadata5">
    <rdf:RDF>
      <cc:Work
         rdf:about="">
        <dc:format>image/svg+xml</dc:format>
        <dc:type
           rdf:resource="http://purl.org/dc/dcmitype/StillImage" />
        <dc:title></dc:title>
      </cc:Work>
    </rdf:RDF>
  </metadata>
  <g
     transform="translate(-21.190438,-85.32864)"
     id="layer1"
     inkscape:groupmode="layer"
     inkscape:label="Calque 1">
    <path
       transform="scale(0.26458333)"
       d="m 221.53711,324.08008 a 165.71427,165.71427 0 0 0 -141.447266,163.92773 165.71427,165.71427 0 0 0 3.15625,32.1836 C 147.61532,471.92448 203.15094,391.47329 221.53711,324.08008 Z m 18.16016,17.08203 c -19.7976,62.35262 -64.29061,129.06602 -119.28321,177.68945 42.77962,-1.21958 95.6712,7.41101 148.50782,21.45899 40.43224,10.74997 79.92738,24.73324 114.04296,40.6914 a 165.71427,165.71427 0 0 0 19.8711,-40.0625 C 391.37675,516.52167 377.08222,491.26043 360.61328,466.86719 325.4217,414.74255 281.41074,368.03854 239.69727,341.16211 Z M 124.02734,541.67578 c -12.81899,0.10963 -24.272998,1.11066 -33.923824,3.06836 A 165.71427,165.71427 0 0 0 245.80273,653.7207 165.71427,165.71427 0 0 0 368.69141,599.18164 C 336.9878,584.98064 300.13394,572.07362 263.09766,562.22656 213.27297,548.97938 162.57269,541.34615 124.02734,541.67578 Z"
       style="fill:url(#linearGradient886);fill-opacity:1;stroke:none;stroke-width:0.755906;stop-color:#000000"
       id="path863" />
    <path
       id="path835"
       transform="scale(0.26458333)"
       d="m 254.10547,322.50195 c 45.19019,29.62287 89.41653,78.52524 125.30078,131.67578 11.34413,16.80256 21.84062,33.99862 31.20117,51.17188 a 165.71427,165.71427 0 0 0 0.91016,-17.3418 165.71427,165.71427 0 0 0 -157.41211,-165.50586 z"
       style="fill:url(#linearGradient884);fill-opacity:1;stroke:none;stroke-width:0.755906;stop-color:#000000" />
  </g>
</svg>
